<svg xmlns="http://www.w3.org/2000/svg" xmlns:xlink="http://www.w3.org/1999/xlink" viewBox="0 0 127.77 110.33"><defs><style>.cls-1{fill:none;}.cls-2{clip-path:url(#clip-path);}.cls-3{fill:#fff;}</style><clipPath id="clip-path" transform="translate(0 -0.07)"><rect class="cls-1" width="127.77" height="110.47"/></clipPath></defs><g id="Layer_2" data-name="Layer 2"><g id="Layer_1-2" data-name="Layer 1"><g class="cls-2"><path class="cls-3" d="M123.4.07H4.37A4.37,4.37,0,0,0,0,4.43V19.81a1.87,1.87,0,0,0,3.74,0V4.43a.63.63,0,0,1,.63-.62h119a.63.63,0,0,1,.63.62V95.71a.63.63,0,0,1-.63.62h-24v-3.9h18.82a1.86,1.86,0,0,0,1.87-1.87V71a1.87,1.87,0,0,0-3.74,0V88.69h-17v-8.3h.18c1.55.14,3.48.31,4.82-1s1.17-3.28,1-4.83,0-2.13,1.29-3.19c3.3-2.75,3.36-5.69,0-8.48-1.28-1.07-1.44-1.52-1.29-3.19.36-4.19-1.59-6.24-5.86-5.87-1.67.15-2.12,0-3.18-1.29-2.74-3.31-5.68-3.37-8.48,0-1.06,1.28-1.51,1.44-3.17,1.29-4.19-.36-6.24,1.6-5.86,5.87.14,1.67,0,2.12-1.3,3.19-3.3,2.74-3.36,5.68,0,8.48,1.29,1.06,1.44,1.52,1.3,3.19-.39,4.48,1.75,6.22,6,5.85v8.3H11.4V11.45h105V61a1.87,1.87,0,0,0,3.74,0V9.58a1.87,1.87,0,0,0-1.87-1.88H9.53A1.87,1.87,0,0,0,7.66,9.58v81a1.86,1.86,0,0,0,1.87,1.87H84.94v3.9H4.37a.63.63,0,0,1-.63-.62V29.29a1.87,1.87,0,0,0-3.74,0V95.71a4.37,4.37,0,0,0,4.37,4.36H84.94v8.47a1.88,1.88,0,0,0,2.67,1.7l4.57-2.13,4.58,2.13a1.91,1.91,0,0,0,2.66-1.7v-8.47h24a4.37,4.37,0,0,0,4.37-4.36V4.43A4.37,4.37,0,0,0,123.4.07Zm-39,76.6c-1.88.17-2,.07-1.8-1.8A6.46,6.46,0,0,0,80,68.47c-1.52-1.26-1.52-1.46,0-2.72a6.47,6.47,0,0,0,2.63-6.4c-.17-1.87-.08-2,1.8-1.81a6.45,6.45,0,0,0,6.39-2.63c1.25-1.52,1.45-1.52,2.7,0a6.47,6.47,0,0,0,6.4,2.63c1.87-.16,2-.06,1.8,1.81a6.47,6.47,0,0,0,2.63,6.4c1.51,1.26,1.51,1.46,0,2.72a6.43,6.43,0,0,0-2.63,6.39c.16,1.88.07,2-1.8,1.81a7.86,7.86,0,0,0-3.69.27,7.6,7.6,0,0,0-2.71,2.37,6.58,6.58,0,0,1-1.35,1.38,6.58,6.58,0,0,1-1.35-1.38,7.52,7.52,0,0,0-2.71-2.37,8.2,8.2,0,0,0-3.68-.27ZM93,104.35a1.9,1.9,0,0,0-1.58,0l-2.7,1.26v-23a4.17,4.17,0,0,0,7,0v23Z" transform="translate(0 -0.07)"/></g><path class="cls-3" d="M24.27,27.12H88.79a1.88,1.88,0,0,0,0-3.75H24.27a1.88,1.88,0,0,0,0,3.75Z" transform="translate(0 -0.07)"/><path class="cls-3" d="M105.37,36.63a1.87,1.87,0,0,0-1.87-1.87H24.27a1.87,1.87,0,0,0,0,3.74H103.5a1.87,1.87,0,0,0,1.87-1.87Z" transform="translate(0 -0.07)"/><path class="cls-3" d="M71.16,48a1.88,1.88,0,0,0-1.88-1.87h-45a1.87,1.87,0,0,0,0,3.74h45A1.88,1.88,0,0,0,71.16,48Z" transform="translate(0 -0.07)"/><path class="cls-3" d="M46.58,74.1H43.52c-2,0-3.05-.52-3.45-2.6-.36-1.9-3.11-1.66-3.61,0-.22.73-1.34,2.84-2.32,2.67-.52-.1-.75-.9-.94-1.31a15.16,15.16,0,0,1-.88-2.53c-1-3.62-1.18-7.41-1.8-11.11-.36-2.14-3.62-1.53-3.68.5a57.3,57.3,0,0,1-3.53,19c-.86,2.25,2.76,3.23,3.61,1a53.73,53.73,0,0,0,2.14-7.18,20.29,20.29,0,0,0,1.07,2.6c1.1,2.16,3.33,3.44,5.71,2.48a6.35,6.35,0,0,0,2.29-1.67c1.77,2,4.41,1.95,6.86,1.95l11.12,0c2.41,0,2.41-3.75,0-3.74l-9.53,0Z" transform="translate(0 -0.07)"/><path class="cls-3" d="M92.18,74.42a7.31,7.31,0,1,0-7.31-7.31,7.32,7.32,0,0,0,7.31,7.31Zm0-10.88a3.57,3.57,0,1,1-3.57,3.57,3.57,3.57,0,0,1,3.57-3.57Z" transform="translate(0 -0.07)"/></g></g></svg>