<svg xmlns="http://www.w3.org/2000/svg" viewBox="0 0 111.45 111.45"><defs><style>.cls-1{fill:#fff;}</style></defs><g id="Layer_2" data-name="Layer 2"><g id="Layer_1-2" data-name="Layer 1"><path class="cls-1" d="M94,17.45V10.36A10.37,10.37,0,0,0,83.65,0H71.1V17.45H64.45a10.35,10.35,0,0,0-8.72,4.78A10.38,10.38,0,0,0,47,17.45H0v94H111.45v-94ZM54.09,108.18H3.27v-12H47a7.1,7.1,0,0,1,7.09,7.09Zm0-12.45A10.33,10.33,0,0,0,47,92.92H3.27V20.72H47a7.1,7.1,0,0,1,7.09,7.09ZM74.38,3.27h9.27a7.1,7.1,0,0,1,7.08,7.09V78.28a10.32,10.32,0,0,0-7.08-2.81H74.38Zm-17,24.54a7.1,7.1,0,0,1,7.09-7.09H71.1v58H83.65a7.09,7.09,0,0,1,0,14.18H64.45a10.35,10.35,0,0,0-7.09,2.81Zm50.82,80.37H57.36v-4.9a7.1,7.1,0,0,1,7.09-7.09h43.73Zm0-15.26h-17A10.35,10.35,0,0,0,94,85.83V20.72h14.17Z"/><path class="cls-1" d="M13.52,48.62l13.22-9.25L13.52,30.12ZM16.79,36.4l4.24,3-4.24,3Z"/><path class="cls-1" d="M13.52,83.08l13.22-9.25L13.52,64.58Zm3.27-12.21,4.24,3-4.24,3Z"/><path class="cls-1" d="M44.39,24.65H12.54a6,6,0,0,0-6,6V48.09a6,6,0,0,0,6,6H44.39a6,6,0,0,0,6-6V30.64a6,6,0,0,0-6-6Zm2.72,23.44a2.72,2.72,0,0,1-2.72,2.73H12.54a2.73,2.73,0,0,1-2.73-2.73V30.64a2.73,2.73,0,0,1,2.73-2.72H44.39a2.72,2.72,0,0,1,2.72,2.72Z"/><rect class="cls-1" x="35.88" y="34.46" width="7.42" height="3.27"/><rect class="cls-1" x="29.34" y="34.46" width="3.27" height="3.27"/><rect class="cls-1" x="29.34" y="41.01" width="7.41" height="3.27"/><rect class="cls-1" x="40.02" y="41.01" width="3.27" height="3.27"/><path class="cls-1" d="M44.39,59.11H12.54a6,6,0,0,0-6,6V82.55a6,6,0,0,0,6,6H44.39a6,6,0,0,0,6-6V65.11a6,6,0,0,0-6-6Zm2.72,23.44a2.72,2.72,0,0,1-2.72,2.73H12.54a2.73,2.73,0,0,1-2.73-2.73V65.11a2.73,2.73,0,0,1,2.73-2.73H44.39a2.72,2.72,0,0,1,2.72,2.73Z"/><rect class="cls-1" x="29.34" y="68.92" width="3.27" height="3.27"/><rect class="cls-1" x="35.88" y="68.92" width="7.42" height="3.27"/><rect class="cls-1" x="40.02" y="75.47" width="3.27" height="3.27"/><rect class="cls-1" x="29.34" y="75.47" width="7.41" height="3.27"/><rect class="cls-1" x="7.09" y="101.64" width="3.27" height="3.27"/><rect class="cls-1" x="13.63" y="101.64" width="3.27" height="3.27"/><rect class="cls-1" x="101.64" y="24.32" width="3.27" height="6.54"/><rect class="cls-1" x="101.64" y="34.13" width="3.27" height="3.27"/><rect class="cls-1" x="101.09" y="101.64" width="3.27" height="3.27"/><rect class="cls-1" x="94.33" y="101.64" width="3.27" height="3.27"/></g></g></svg>