<svg xmlns="http://www.w3.org/2000/svg" viewBox="0 0 120.49 109.43"><defs><style>.cls-1{fill:#fff;}</style></defs><g id="Layer_2" data-name="Layer 2"><g id="Layer_1-2" data-name="Layer 1"><path class="cls-1" d="M115.2,21.18h-5.3V15.89a5.3,5.3,0,0,0-5.29-5.3h-5.3V5.3A5.3,5.3,0,0,0,94,0H26.48a5.31,5.31,0,0,0-5.3,5.3v5.29H15.89a5.31,5.31,0,0,0-5.3,5.3v5.29H5.3A5.31,5.31,0,0,0,0,26.48v77.66a5.3,5.3,0,0,0,5.3,5.29h94V105.9H5.3a1.76,1.76,0,0,1-1.77-1.76V26.48A1.77,1.77,0,0,1,5.3,24.71H115.2A1.76,1.76,0,0,1,117,26.48v77.66a1.76,1.76,0,0,1-1.76,1.76h-5.3v3.53h5.3a5.29,5.29,0,0,0,5.29-5.29V26.48a5.3,5.3,0,0,0-5.29-5.3ZM14.12,15.89a1.77,1.77,0,0,1,1.77-1.77H30V10.59h-5.3V5.3a1.77,1.77,0,0,1,1.77-1.77H94A1.76,1.76,0,0,1,95.78,5.3v5.29H33.54v3.53h71.07a1.76,1.76,0,0,1,1.76,1.77v5.29H14.12Z"/><rect class="cls-1" x="102.84" y="105.9" width="3.53" height="3.53"/><path class="cls-1" d="M51.53,78.8,74.87,65.46,51.53,52.12Zm3.53-20.59,12.7,7.25-12.7,7.26Z"/><path class="cls-1" d="M33.77,65.31A26.48,26.48,0,1,0,60.25,38.83,26.51,26.51,0,0,0,33.77,65.31Zm49.42,0a22.95,22.95,0,1,1-22.94-23,23,23,0,0,1,22.94,23Z"/><rect class="cls-1" x="109.9" y="28.24" width="3.53" height="3.53"/><rect class="cls-1" x="109.9" y="35.3" width="3.53" height="3.53"/></g></g></svg>