<svg xmlns="http://www.w3.org/2000/svg" viewBox="0 0 124.58 124.58"><defs><style>.cls-1{fill:#fff;}</style></defs><g id="Layer_2" data-name="Layer 2"><g id="Layer_1-2" data-name="Layer 1"><path class="cls-1" d="M121.54,102.68h-2.43V28.49A9.14,9.14,0,0,0,110,19.36H81.47a18.89,18.89,0,0,0-1.67-8,1.83,1.83,0,1,0-3.33,1.5,15.3,15.3,0,0,1,1.35,6.34,15.48,15.48,0,0,1-4,10.37,11.27,11.27,0,0,0-5.73-7.11,8.25,8.25,0,1,0-11.64,0,11.26,11.26,0,0,0-5.72,7.11,15.52,15.52,0,0,1,21-22.7A1.83,1.83,0,0,0,74,4,19.18,19.18,0,0,0,43.12,19.36H14.6a9.15,9.15,0,0,0-9.13,9.13v74.19H3a3,3,0,0,0-3,3v8.4a10.46,10.46,0,0,0,10.45,10.45H114.13a10.45,10.45,0,0,0,10.45-10.45v-8.4a3,3,0,0,0-3-3ZM62.29,12a4.6,4.6,0,1,1-4.6,4.6,4.61,4.61,0,0,1,4.6-4.6ZM61.6,24.84H63a7.59,7.59,0,0,1,7.57,7.48,15.49,15.49,0,0,1-16.53,0,7.58,7.58,0,0,1,7.57-7.48Zm23,49.73H86A7.57,7.57,0,0,1,93.59,82a15.47,15.47,0,0,1-16.52,0,7.57,7.57,0,0,1,7.57-7.47Zm-3.91-8.25a4.6,4.6,0,1,1,4.6,4.6,4.6,4.6,0,0,1-4.6-4.6Zm10.42,5.84a8.25,8.25,0,1,0-11.64,0,11.25,11.25,0,0,0-5.72,7.12,15.53,15.53,0,1,1,23.09,0,11.29,11.29,0,0,0-5.73-7.12Zm-25-2.81H58.43A19.22,19.22,0,0,0,48.1,51.89l9.43-14.13a19.22,19.22,0,0,0,9.53,0l9.43,14.13A19.19,19.19,0,0,0,66.16,69.35Zm-27.6,5.22H40A7.58,7.58,0,0,1,47.52,82,15.49,15.49,0,0,1,31,82a7.58,7.58,0,0,1,7.57-7.47Zm-3.91-8.25a4.6,4.6,0,1,1,4.6,4.6,4.61,4.61,0,0,1-4.6-4.6Zm10.42,5.84a8.26,8.26,0,1,0-11.63,0,11.26,11.26,0,0,0-5.73,7.12,15.53,15.53,0,1,1,23.09,0,11.29,11.29,0,0,0-5.73-7.12ZM9.12,28.49A5.49,5.49,0,0,1,14.6,23H43.5a18.66,18.66,0,0,0,1.14,3.65H15.57a2.81,2.81,0,0,0-2.8,2.8v31.3a1.83,1.83,0,0,0,3.65,0V30.31H46.69A19.26,19.26,0,0,0,54,36.46l-9.36,14A19.18,19.18,0,1,0,58,73h8.6A19.18,19.18,0,1,0,85.33,49.73,19.12,19.12,0,0,0,80,50.5l-9.37-14a19.29,19.29,0,0,0,7.32-6.15h30.26V91.73H16.42V69.27a1.83,1.83,0,0,0-3.65,0V92.59a2.8,2.8,0,0,0,2.8,2.79H109a2.8,2.8,0,0,0,2.8-2.79V29.46a2.81,2.81,0,0,0-2.8-2.8H80A18.64,18.64,0,0,0,81.08,23H110a5.49,5.49,0,0,1,5.48,5.48v74.19H9.12Zm61.8,77.84v3a.6.6,0,0,1-.61.6h-16a.6.6,0,0,1-.6-.6v-3Zm50,7.8a6.81,6.81,0,0,1-6.8,6.8H10.45a6.81,6.81,0,0,1-6.8-6.8v-7.8H50v3a4.26,4.26,0,0,0,4.25,4.25h16a4.26,4.26,0,0,0,4.26-4.25v-3h46.36Z"/></g></g></svg>